<svg width="40" height="40" viewBox="0 0 40 40" fill="none" xmlns="http://www.w3.org/2000/svg">
<path d="M20.2266 3.74956C11.0875 3.62612 3.62661 11.0871 3.75005 20.2261C3.87192 28.991 11.0086 36.1277 19.7735 36.2496C28.9141 36.3746 36.3735 28.9136 36.2485 19.7746C36.1282 11.0082 28.9914 3.87143 20.2266 3.74956ZM18.9149 18.7863L22.9422 14.1769C23.1604 13.9272 23.4688 13.7744 23.7997 13.7522C24.1305 13.7299 24.4566 13.84 24.7063 14.0582C24.956 14.2763 25.1087 14.5848 25.131 14.9156C25.1533 15.2464 25.0432 15.5725 24.825 15.8222L20.7977 20.4316C20.6897 20.5552 20.5583 20.6564 20.4112 20.7292C20.2641 20.8021 20.1041 20.8453 19.9403 20.8563C19.7765 20.8673 19.6121 20.846 19.4565 20.7935C19.301 20.741 19.1573 20.6584 19.0336 20.5503C18.91 20.4423 18.8089 20.311 18.736 20.1639C18.6631 20.0167 18.6199 19.8567 18.6089 19.6929C18.5979 19.5291 18.6192 19.3647 18.6717 19.2092C18.7242 19.0536 18.8069 18.9099 18.9149 18.7863ZM15.879 25.8839C15.6446 26.1182 15.3267 26.2498 14.9954 26.2498C14.664 26.2498 14.3462 26.1182 14.1118 25.8839L10.3657 22.1339C10.2496 22.0178 10.1576 21.8799 10.0949 21.7282C10.0321 21.5765 9.99983 21.414 9.9999 21.2498C9.99997 21.0856 10.0324 20.9231 10.0953 20.7714C10.1582 20.6198 10.2503 20.482 10.3665 20.366C10.4826 20.2499 10.6204 20.1579 10.7721 20.0951C10.9238 20.0324 11.0864 20.0001 11.2506 20.0002C11.4148 20.0003 11.5773 20.0327 11.729 20.0956C11.8806 20.1585 12.0184 20.2506 12.1344 20.3667L15.8844 24.1167C16.1179 24.3519 16.2485 24.6701 16.2475 25.0015C16.2465 25.3328 16.1139 25.6503 15.879 25.8839ZM29.6914 15.8222L20.9508 25.8222C20.8382 25.9512 20.7003 26.0558 20.5456 26.1293C20.3909 26.2028 20.2228 26.2437 20.0516 26.2496H20.0094C19.8452 26.2496 19.6825 26.2172 19.5308 26.1544C19.379 26.0915 19.2412 25.9993 19.125 25.8831L15.3797 22.1332C15.1454 21.8986 15.0138 21.5806 15.014 21.249C15.0141 20.9174 15.146 20.5995 15.3805 20.3652C15.6151 20.1308 15.9331 19.9993 16.2647 19.9994C16.5962 19.9996 16.9141 20.1314 17.1485 20.366L19.4766 22.6964C19.5371 22.757 19.6094 22.8044 19.6891 22.8359C19.7687 22.8673 19.8539 22.8821 19.9395 22.8792C20.025 22.8763 20.1091 22.8559 20.1864 22.8193C20.2638 22.7826 20.3328 22.7304 20.3891 22.666L27.811 14.1769C28.0292 13.9272 28.3376 13.7744 28.6684 13.7522C28.9992 13.7299 29.3254 13.84 29.575 14.0582C29.8247 14.2763 29.9775 14.5848 29.9998 14.9156C30.022 15.2464 29.912 15.5725 29.6938 15.8222H29.6914Z" fill="black"/>
</svg>
