<svg width="40" height="40" viewBox="0 0 40 40" fill="none" xmlns="http://www.w3.org/2000/svg">
<path d="M20 2.5C16.5388 2.5 13.1554 3.52636 10.2775 5.44928C7.39967 7.37221 5.15665 10.1053 3.83212 13.303C2.50758 16.5007 2.16102 20.0194 2.83627 23.4141C3.51151 26.8087 5.17822 29.9269 7.62564 32.3744C10.0731 34.8218 13.1913 36.4885 16.5859 37.1637C19.9806 37.839 23.4993 37.4924 26.697 36.1679C29.8947 34.8434 32.6278 32.6003 34.5507 29.7225C36.4737 26.8446 37.5 23.4612 37.5 20C37.4947 15.3603 35.6493 10.9122 32.3685 7.63148C29.0878 4.35074 24.6397 2.50529 20 2.5ZM20 35C16.0218 35 12.2065 33.4196 9.39341 30.6066C6.58036 27.7936 5.00001 23.9782 5.00001 20C5.00001 16.0218 6.58036 12.2064 9.39341 9.3934C12.2065 6.58035 16.0218 5 20 5V20L30.6013 30.6013C29.211 31.9965 27.5587 33.1034 25.7395 33.8582C23.9202 34.6131 21.9697 35.0011 20 35Z" fill="black"/>
</svg>
